<svg width="30" height="30" viewBox="0 0 30 30" fill="none" xmlns="http://www.w3.org/2000/svg">
<g clip-path="url(#clip0_257_16971)">
<rect y="0.0908098" width="29.9094" height="29.9094" rx="14.5946" transform="rotate(-0.173721 0 0.0908098)" fill="#FF78B9"/>
<path d="M24.3867 35.1713C25.3967 33.0371 22.6607 29.6249 18.2755 27.5496C13.8906 25.4742 9.51697 25.522 8.507 27.6562C7.49702 29.7902 10.233 33.2026 14.6181 35.2779C19.0031 37.353 23.3767 37.3053 24.3867 35.1713Z" fill="black"/>
<path d="M24.9186 23.3693C23.6187 22.565 23.555 22.5865 22.8279 21.2913C22.1008 19.9961 21.1843 19.3608 20.1204 19.2151L21.4681 28.7609C24.2354 29.5607 25.9327 28.1518 26.3113 26.7681C26.69 25.3845 26.2397 24.1735 24.9186 23.3693Z" fill="#3442D9"/>
<path d="M23.625 24.6283C23.2587 23.0768 22.2961 21.2718 21.1648 19.914C20.7594 19.4235 20.4711 18.8469 20.3219 18.2282C20.1726 17.6095 20.1662 16.965 20.3032 16.3435L20.7646 14.2152C21.0892 12.738 20.909 11.1947 20.2534 9.83184C19.5976 8.46897 18.504 7.36521 17.1474 6.69689C16.3688 6.31651 15.5221 6.09495 14.6569 6.0451C13.0289 5.9308 11.4204 6.45539 10.1728 7.50748C8.92511 8.55959 8.13653 10.0564 7.97428 11.6804C7.9398 11.9555 7.9264 12.2328 7.93426 12.51L7.93703 13.4246L7.99117 17.2528C8.04254 18.9727 7.68317 20.6797 6.94282 22.2329C6.63544 22.8492 6.40196 23.4996 6.24682 24.1705L16.6808 35.1988C21.6339 34.3543 24.7247 29.5594 23.625 24.6283Z" fill="#3442D9"/>
<path d="M16.7021 35.1986C21.6339 34.3541 24.7247 29.5592 23.625 24.6282C23.2802 23.1616 22.403 21.4628 21.3569 20.1473" stroke="black" stroke-miterlimit="10" stroke-linecap="round"/>
<path d="M20.308 24.9572C21.2815 23.3378 21.665 23.5493 23.4104 24.012C24.8153 24.3693 26.4404 27.2357 24.2966 28.6885C22.1529 30.1412 17.7688 29.2825 20.308 24.9572Z" fill="#3442D9"/>
<path d="M15.4449 20.205C15.6405 20.0545 15.6712 19.7666 15.5136 19.5616C15.356 19.3569 15.0698 19.3129 14.8743 19.4632C14.6789 19.6137 14.6481 19.9016 14.8057 20.1064C14.9633 20.3113 15.2495 20.3554 15.4449 20.205Z" fill="black"/>
<path d="M18.1244 20.363C18.3199 20.2127 18.3507 19.9246 18.1931 19.7198C18.0355 19.5151 17.7493 19.4709 17.5537 19.6214C17.3582 19.7717 17.3274 20.0598 17.485 20.2646C17.6426 20.4693 17.9288 20.5136 18.1244 20.363Z" fill="black"/>
<path d="M17.8471 20.0304C20.1286 21.8952 19.1968 23.238 21.0343 25.9974" stroke="white" stroke-miterlimit="10" stroke-linecap="round"/>
<path d="M15.2863 24.228C16.6871 23.2453 17.1116 22.9676 17.6434 22.9872L19.0263 23.1106L18.6817 28.7267L15.1721 28.631L15.2863 24.228Z" fill="#FFC619"/>
<path d="M22.088 22.7825C22.1144 22.7082 22.1229 22.6286 22.1133 22.5504C22.1037 22.4721 22.076 22.3971 22.0326 22.3313C21.9891 22.2655 21.931 22.2106 21.8629 22.1711C21.7945 22.1315 21.718 22.1083 21.6393 22.1033L19.2987 21.77C19.1289 21.7525 18.9581 21.7938 18.8152 21.8872C18.6721 21.9806 18.5656 22.1202 18.5133 22.2829L17.2095 27.1787C17.1833 27.2532 17.1747 27.3326 17.1843 27.4108C17.1938 27.4891 17.2215 27.5641 17.2649 27.6299C17.3085 27.6957 17.3665 27.7506 17.4349 27.7902C17.5031 27.8297 17.5795 27.8529 17.6582 27.858L19.9988 28.1912C20.1688 28.2087 20.3395 28.1674 20.4825 28.074C20.6254 27.9806 20.732 27.841 20.7842 27.6783L22.088 22.7825Z" fill="black"/>
<path d="M21.9802 22.2936L22.2363 22.5906L21.5346 22.6565L21.9802 22.2936Z" fill="black"/>
<path d="M23.1386 25.5228C22.8393 25.0345 22.5609 24.4186 21.7523 24.2934L21.6491 25.3146L23.1386 25.5228Z" fill="#FFC619"/>
<path d="M22.3228 23.0581C22.3449 22.9839 22.3504 22.9056 22.3389 22.8288C22.3274 22.7521 22.2993 22.6788 22.2566 22.614C22.2139 22.5493 22.1575 22.4948 22.0915 22.4542C22.0254 22.4135 21.9511 22.3878 21.8741 22.3789L19.5122 22.0458C19.3431 22.032 19.1739 22.0751 19.0319 22.1678C18.8897 22.2608 18.7823 22.3981 18.7268 22.5586L17.423 27.4544C17.4009 27.5287 17.3954 27.607 17.4069 27.6838C17.4184 27.7605 17.4465 27.8338 17.4892 27.8985C17.5319 27.9633 17.5883 28.018 17.6543 28.0584C17.7206 28.099 17.7947 28.1248 17.8717 28.1337L20.2335 28.4455C20.3991 28.4723 20.5687 28.4367 20.7096 28.3461C20.8506 28.2552 20.9533 28.1158 20.9977 27.954L22.3228 23.0581Z" fill="white"/>
<path d="M21.6055 24.9959L22.5631 25.1419C22.7571 25.1627 22.935 25.259 23.0588 25.4096C23.1826 25.5605 23.2421 25.7538 23.2248 25.9481C23.2203 26.0491 23.1946 26.1481 23.1496 26.2386C23.1043 26.3289 23.0408 26.4091 22.9629 26.4734C22.8848 26.5378 22.7944 26.5851 22.6968 26.6122C22.5995 26.6395 22.4974 26.646 22.3974 26.6312L21.6952 26.527C21.4771 26.4964 21.2752 26.3945 21.1207 26.2373C20.9665 26.08 20.8684 25.8763 20.8418 25.6575C20.8362 25.5601 20.8531 25.4627 20.8912 25.3728C20.9292 25.2829 20.9874 25.203 21.061 25.139C21.1348 25.0751 21.2223 25.0289 21.3167 25.0042C21.4111 24.9794 21.5099 24.9766 21.6055 24.9959Z" fill="#FFC619"/>
<path d="M21.2908 26.4218L21.9505 26.5262C22.0609 26.5399 22.167 26.5772 22.2614 26.6358C22.3558 26.6945 22.4362 26.7731 22.4971 26.8659C22.5582 26.9589 22.5983 27.064 22.6146 27.1739C22.6308 27.2838 22.6229 27.396 22.5915 27.5026C22.5467 27.6742 22.4387 27.8225 22.2891 27.9176C22.1394 28.0127 21.9594 28.0477 21.7849 28.0155L21.3806 27.9529C21.1599 27.9232 20.955 27.8221 20.7971 27.6652C20.6393 27.5083 20.537 27.304 20.5059 27.0836C20.4994 26.9838 20.5166 26.8842 20.5556 26.7922C20.5949 26.7004 20.6551 26.619 20.7314 26.5546C20.8078 26.4903 20.8981 26.4447 20.9954 26.4217C21.0925 26.3986 21.1938 26.3987 21.2908 26.4218Z" fill="#FFC619"/>
<path d="M19.2351 28.8526L16.9371 28.5405L17.0406 27.6044L19.3387 27.9377L19.2351 28.8526Z" fill="#FFC619"/>
<path d="M19.7768 25.129L18.3299 24.9207C18.2609 24.9116 18.1962 24.8826 18.1431 24.8377C18.0902 24.7926 18.0513 24.7331 18.0313 24.6664L17.9026 24.284L17.7938 23.4973L17.0153 26.2647L19.3559 26.5979C19.5738 26.6264 19.7948 26.5806 19.9836 26.4681C20.1723 26.3557 20.3177 26.1832 20.3962 25.9779C20.4212 25.8806 20.4243 25.779 20.4055 25.6803C20.3865 25.5817 20.346 25.4885 20.2868 25.4074C20.2277 25.3261 20.1511 25.2591 20.0631 25.2111C19.9749 25.1629 19.8772 25.1349 19.7768 25.129Z" fill="#FFC619"/>
<path d="M19.3133 26.5766L17.0153 26.2645L17.1263 27.7956L18.8923 28.0454C19.1079 28.0769 19.3275 28.032 19.5134 27.9189C19.6994 27.8059 19.8401 27.6312 19.9114 27.4256C19.9402 27.3298 19.9469 27.2287 19.9311 27.1299C19.9151 27.031 19.8767 26.9373 19.8192 26.8554C19.7616 26.7737 19.6861 26.7061 19.5983 26.6576C19.5107 26.6094 19.4132 26.5816 19.3133 26.5766Z" fill="#FFC619"/>
<path d="M35.6336 35.9069C35.6905 33.6096 33.7965 33.2538 32.4966 32.4495C31.1968 31.6452 29.6602 29.9484 28.0616 28.8047C26.4629 27.661 25.0805 27.6865 22.3819 28.5241L25.4841 34.5126C27.2308 35.4006 27.6166 36.3778 28.5565 37.6936C29.4963 39.0095 30.7527 39.5161 32.0068 39.2784C32.6695 40.3611 32.7979 40.6159 33.7539 40.2727C34.71 39.9295 36.2817 39.2016 36.7033 37.9454C37.1248 36.6893 36.5074 36.4785 35.6336 35.9069Z" fill="#66BCFF"/>
<path d="M25.3458 30.9822C25.0627 31.8962 24.8803 32.8381 24.8013 33.7914" stroke="black" stroke-width="2" stroke-miterlimit="10" stroke-linecap="round"/>
<path d="M26.6342 42.0385C24.704 43.7884 23.0648 43.3042 22.2989 43.2214C21.5329 43.1386 21.6163 42.5854 21.5511 42.1177C21.4859 41.65 21.4412 40.9482 21.4412 40.9482C19.5054 40.8265 19.2674 39.5085 19.2213 38.3389C19.1753 37.1692 18.877 37 18.7256 36.1709C16.3907 35.7588 14.1822 34.8148 12.271 33.4115C10.3598 32.0084 8.79755 30.1838 7.70496 28.0796L9.72105 26.6059L14.2389 29.5273C17.277 28.3909 18.9555 27.8115 20.5928 27.7002C22.2302 27.5889 23.8485 28.2008 24.3871 30.4749C24.9258 32.7491 24.9917 33.4508 25.4842 34.534C25.6126 34.8101 25.8265 35.1923 26.0404 35.5957C26.6396 36.8063 27.2615 38.5059 26.0548 40.36C26.2044 40.9336 26.3981 41.4949 26.6342 42.0385Z" fill="#8CD9FF"/>
<path d="M11.0146 32.3658C10.9462 30.8559 11.5172 29.7907 12.5589 29.6174L9.91602 27.7962L8.00435 28.6315C8.49766 29.9913 9.75703 31.4763 11.0146 32.3658Z" fill="black"/>
<path d="M15.3279 23.9302C14.7095 23.4003 14.2417 23.4443 13.4983 23.7656C12.7091 23.0448 11.6879 22.9416 10.6256 23.3064C9.56322 23.6712 7.927 24.1653 6.97068 24.4234C6.91736 24.4436 6.85931 24.4478 6.80355 24.4359C6.74778 24.4237 6.69665 24.396 6.65612 24.3559C6.6158 24.3156 6.58778 24.2647 6.57549 24.209C6.56299 24.1533 6.56706 24.0952 6.58668 24.0418L7.28081 21.4874C5.01021 23.1958 4.27683 26.835 5.00596 28.8108C5.7351 30.7866 8.88282 30.7558 9.88078 30.1998C10.8787 29.6438 11.2185 29.4726 12.3677 29.6818C13.5168 29.891 14.4106 30.0372 15.9172 28.8841L16.8096 28.5836C17.144 26.6471 16.842 25.2443 15.3279 23.9302Z" fill="#3442D9"/>
<path d="M15.328 23.9301C14.7096 23.4003 14.2418 23.4442 13.4983 23.7655C12.7092 23.0447 11.688 22.9415 10.6256 23.3063C9.56328 23.6711 7.92706 24.1652 6.97074 24.4234" stroke="black" stroke-miterlimit="10" stroke-linecap="round"/>
<path d="M13.4983 23.7656C14.1351 24.2557 14.6659 24.8696 15.0591 25.5701C15.4524 26.2707 15.6998 27.0438 15.7864 27.8424" stroke="black" stroke-miterlimit="10" stroke-linecap="round"/>
<path d="M19.9408 23.1081C19.9503 23.0787 19.9534 23.0476 19.9497 23.0168C19.946 22.9862 19.9357 22.9566 19.9192 22.9305C19.903 22.9042 19.8812 22.8817 19.8555 22.8648C19.8297 22.8479 19.8005 22.8367 19.7699 22.8321L19.5572 22.8327C19.498 22.8199 19.4361 22.8308 19.3848 22.8626C19.3332 22.8945 19.2961 22.945 19.2812 23.0037L19.0919 23.7062C19.0822 23.7373 19.0798 23.77 19.0847 23.8021C19.0897 23.8342 19.1019 23.8646 19.1203 23.8913C19.1389 23.9179 19.1634 23.9399 19.1918 23.9558C19.2201 23.9714 19.2518 23.9805 19.2842 23.9821L19.4968 23.9814C19.5528 23.9885 19.6093 23.9749 19.6562 23.9435C19.7029 23.9121 19.7368 23.865 19.7515 23.8105L19.9408 23.1081Z" fill="#29CC7A"/>
<path d="M16.5255 19.0346C16.6889 18.7012 16.9307 18.4126 17.2299 18.1931C17.5293 17.9737 17.8775 17.83 18.2444 17.7745C18.287 17.7744 18.3081 17.7318 18.2868 17.7106C18.0072 16.6905 18.1331 16.1159 18.4924 15.3704C18.496 15.3649 18.4983 15.3588 18.4991 15.3524C18.4999 15.3459 18.4993 15.3394 18.4974 15.3332C18.4952 15.3271 18.4918 15.3215 18.4871 15.3169C18.4826 15.3123 18.4771 15.3087 18.4709 15.3066C17.2783 14.7998 16.8291 13.9504 16.6995 13.3127C16.6781 13.2702 16.6143 13.2492 16.5931 13.2918C16.0646 14.3568 15.3416 14.4015 14.7246 14.3183C14.682 14.3185 14.6609 14.3611 14.6822 14.3823C15.3026 15.5715 14.8586 16.4236 14.2436 17.021C14.2404 17.0293 14.2387 17.0383 14.2392 17.0472C14.2396 17.0562 14.242 17.065 14.2461 17.073C14.2501 17.081 14.2557 17.0881 14.2627 17.0938C14.2695 17.0994 14.2776 17.1036 14.2864 17.1059C15.4781 17.315 16.1185 18.1 16.419 19.0136C16.4404 19.0561 16.5043 19.0772 16.5255 19.0346Z" fill="#FFC619"/>
<path d="M19.3133 26.5769L18.1004 26.4104" stroke="black" stroke-miterlimit="10" stroke-linecap="round"/>
<path d="M21.525 26.5062L22.206 26.6105" stroke="black" stroke-miterlimit="10" stroke-linecap="round"/>
<path d="M16.6568 13.2703C17.1849 12.0776 17.1399 11.2483 16.9896 10.7808" stroke="black" stroke-miterlimit="10" stroke-linecap="round"/>
<path d="M18.3646 15.3495C18.6966 15.3993 19.0355 15.3771 19.3581 15.2844C19.6809 15.1917 19.9799 15.0306 20.2347 14.8121" stroke="black" stroke-miterlimit="10" stroke-linecap="round"/>
<path d="M16.5254 19.0346C16.5276 19.1928 16.5066 19.3507 16.463 19.5027" stroke="black" stroke-miterlimit="10" stroke-linecap="round"/>
<path d="M14.35 17.042C13.5647 17.5973 12.3734 17.5159 11.5431 17.2632" stroke="black" stroke-miterlimit="10" stroke-linecap="round"/>
<path d="M14.7245 14.3184C14.4249 13.7025 13.8698 13.0023 13.3586 12.7699" stroke="black" stroke-miterlimit="10" stroke-linecap="round"/>
<path d="M18.2867 17.7107C18.5615 17.8563 18.8554 17.9628 19.1597 18.027" stroke="black" stroke-miterlimit="10" stroke-linecap="round"/>
<path d="M16.0041 15.4418C16.3699 16.8444 16.8376 16.7579 17.0489 16.3319C17.2603 15.9059 17.4076 15.3737 17.7481 15.4152C18.0885 15.4567 18.0052 16.0525 17.6037 16.9045C17.2022 17.7565 16.5434 17.9499 15.9243 17.2074C15.3053 16.4648 15.2818 15.7418 15.259 15.2314C15.2362 14.721 15.7675 14.5918 16.0041 15.4418Z" fill="#C40655"/>
<path d="M15.1667 19.8684C15.4309 22.8027 13.9463 24.211 13.4872 27.1263" stroke="white" stroke-miterlimit="10" stroke-linecap="round"/>
<path d="M18.5555 36.1927C18.1688 34.939 17.9917 32.6425 19.0277 30.6188" stroke="black" stroke-width="2" stroke-miterlimit="10" stroke-linecap="round"/>
<path d="M7.79949 24.1869L6.22715 24.7021" stroke="black" stroke-miterlimit="10" stroke-linecap="round"/>
<path d="M23.4315 23.9483L24.4958 24.2428" stroke="black" stroke-miterlimit="10" stroke-linecap="round"/>
</g>
<defs>
<clipPath id="clip0_257_16971">
<rect y="0.0908098" width="29.9094" height="29.9094" rx="14.5946" transform="rotate(-0.173721 0 0.0908098)" fill="white"/>
</clipPath>
</defs>
</svg>
