<svg width="30" height="30" viewBox="0 0 30 30" fill="none" xmlns="http://www.w3.org/2000/svg">
<g clip-path="url(#clip0_257_16969)">
<rect y="0.0908098" width="29.9094" height="29.9094" rx="14.5946" transform="rotate(-0.173721 0 0.0908098)" fill="#3442D9"/>
<path d="M6.67096 11.8247C5.79017 8.93474 5.31806 7.55369 6.88938 6.69816C8.46069 5.84264 13.2479 6.40238 15.4828 6.92733C17.7176 7.45228 18.0383 8.00431 16.5774 10.1994L6.67096 11.8247Z" fill="#FFF4B3"/>
<path d="M5.7289 37.8395C5.36255 29.2479 5.55357 22.101 5.81852 18.293C4.39067 17.3615 3.72915 16.6403 3.45143 16.2371C3.39376 16.1594 3.36412 16.0644 3.36787 15.9676C3.37141 15.8711 3.40771 15.7784 3.47108 15.7053C5.717 12.8697 7.64498 10.3966 9.66204 9.24201C11.6791 8.08736 14.4431 7.78122 18.8591 12.1492C18.9014 12.2052 18.9224 12.2743 18.9188 12.3443C18.9152 12.4145 18.8869 12.481 18.839 12.5322C18.4904 12.8803 18.1221 13.2081 17.7359 13.5139C18.6341 15.1063 19.9388 17.527 19.9388 17.527L20.9597 17.5239C21.614 17.522 22.2424 17.78 22.7064 18.2414C23.1706 18.7026 23.4324 19.3292 23.4344 19.9836C23.4617 21.9616 23.001 24.3451 22.0957 27.4106C26.1894 30.7161 25.2111 37.7592 25.2111 37.7592L5.7289 37.8395Z" fill="#29CC7A"/>
<path d="M22.0958 27.4105C22.222 26.9634 22.3484 26.5589 22.4535 26.1332L19.2473 27.9296C19.2473 27.9296 14.1537 24.5207 5.61842 22.4197C5.48153 26.3761 5.47651 31.7359 5.72898 37.8394L25.2112 37.7803C25.2112 37.7803 26.1894 30.716 22.0958 27.4105Z" fill="#8CD9FF"/>
<path d="M22.9064 28.1949C22.6575 27.9122 22.3864 27.6499 22.0957 27.4104C22.222 26.9634 22.3484 26.5589 22.4535 26.1332L19.2473 27.9295C19.2473 27.9295 14.1536 24.5207 5.6184 22.4196C5.59861 22.9089 5.57895 23.4407 5.58057 23.9724C12.1183 26.6537 15.6417 31.2797 16.0656 37.808L20.8936 37.7934C21.733 34.0475 22.4037 30.77 22.9064 28.1949Z" fill="#BAE8FF"/>
<path d="M8.18439 19.9234L8.26946 19.9232C8.31187 19.8805 8.35434 19.8591 8.37542 19.7953L10.2077 13.8131C10.2199 13.788 10.2269 13.7605 10.2274 13.7324C10.228 13.7046 10.2226 13.6767 10.2112 13.6512C10.2001 13.6255 10.1832 13.6026 10.1623 13.5842C10.1412 13.5657 10.1165 13.5522 10.0895 13.5444C10.0626 13.5366 10.0344 13.5348 10.0067 13.5389C9.97908 13.5433 9.95274 13.5535 9.92939 13.5691C9.90625 13.5847 9.88674 13.6052 9.87214 13.6293C9.85775 13.6532 9.84869 13.68 9.84579 13.7079L8.07675 19.4984C7.30391 19.1715 6.56234 18.775 5.86119 18.314L5.81865 18.3142C5.81904 18.4418 5.79822 18.5907 5.7986 18.7183C6.53487 19.1889 7.31199 19.5924 8.12058 19.9236L8.18439 19.9234Z" fill="black"/>
<path d="M16.0672 10.286L8.45468 10.862C16.9671 12.4527 17.3294 12.6855 16.0672 10.286Z" fill="black"/>
<path d="M14.1811 15.8239C14.4747 15.7044 14.5259 15.1487 14.2954 14.583C14.0648 14.0175 13.64 13.6559 13.3462 13.7755C13.0524 13.8953 13.0014 14.4508 13.2319 15.0165C13.4623 15.5822 13.8873 15.9437 14.1811 15.8239Z" fill="black"/>
<path d="M16.3773 16.9932C16.7543 16.2757 16.7061 15.5081 16.2694 15.2786C15.8326 15.049 15.173 15.4447 14.7957 16.1619C14.4187 16.8794 14.4672 17.6471 14.9037 17.8767C15.3404 18.1062 16.0002 17.7107 16.3773 16.9932Z" stroke="white" stroke-miterlimit="10"/>
<path d="M19.5091 16.9881C19.8861 16.2709 19.8379 15.5032 19.4012 15.2735C18.9644 15.0441 18.3048 15.4396 17.9278 16.1571C17.5507 16.8745 17.599 17.6422 18.0357 17.8716C18.4724 18.1011 19.132 17.7056 19.5091 16.9881Z" stroke="white" stroke-miterlimit="10"/>
<path d="M17.354 15.7116C17.5499 15.6319 17.529 15.1264 17.3072 14.5823C17.0857 14.0385 16.7472 13.6622 16.5513 13.7422C16.3557 13.8219 16.3766 14.3274 16.5981 14.8714C16.8199 15.4152 17.1584 15.7915 17.354 15.7116Z" fill="black"/>
<path d="M19.3973 21.2718C17.7551 21.2821 16.16 20.7233 14.8835 19.6904C13.5615 18.6096 14.0928 18.4804 14.9222 18.4566C15.7517 18.4328 19.7294 18.5697 20.8784 18.7363C22.0275 18.903 22.247 21.1781 19.3973 21.2718Z" fill="#912869"/>
<path d="M19.3973 21.2718C17.7551 21.2821 16.16 20.7233 14.8835 19.6904C13.5615 18.6096 14.0928 18.4804 14.9222 18.4566C15.7517 18.4328 19.7294 18.5697 20.8784 18.7363C22.0275 18.903 22.247 21.1781 19.3973 21.2718Z" fill="#611B46"/>
<path d="M19.3194 23.6544L19.232 22.8677C19.8327 22.818 20.4177 22.6499 20.9532 22.3733" stroke="black" stroke-linecap="round" stroke-linejoin="round"/>
<path d="M20.1839 21.1632C19.032 20.0607 17.4769 19.236 14.6062 19.4361C17.0803 21.7044 19.6526 21.3137 20.1839 21.1632Z" fill="#EB459F"/>
<path d="M16.5107 16.2399L17.8081 16.236" stroke="white" stroke-miterlimit="10"/>
<path d="M14.5547 16.501L9.06059 14.2844C8.94539 14.2401 8.82113 14.2245 8.69867 14.2385C8.57599 14.2527 8.45872 14.2962 8.35641 14.3655C8.25432 14.4347 8.17037 14.5277 8.112 14.6363C8.05341 14.745 8.02209 14.8661 8.02055 14.9895C8.01844 15.1347 8.06013 15.2771 8.14026 15.3983C8.22017 15.5193 8.33488 15.6136 8.46926 15.6687L8.83135 15.8378" stroke="white" stroke-miterlimit="10" stroke-linecap="round"/>
<path d="M13.3978 13.7183C13.8294 13.7281 14.2601 13.6693 14.6734 13.5443" stroke="black" stroke-miterlimit="10" stroke-linecap="round"/>
<path d="M16.5881 13.7088C16.8601 13.715 17.1298 13.6559 17.3745 13.5363" stroke="black" stroke-miterlimit="10" stroke-linecap="round"/>
<path d="M7.39191 11.0778C14.9846 10.9484 17.5555 10.0899 19.7225 9.29633C21.8896 8.50281 21.675 7.88666 20.0162 7.95549C18.3575 8.02433 12.6853 10.211 7.39191 11.0778Z" fill="#FFF4B3"/>
<path d="M7.39192 11.078L9.98608 10.8575L16.2141 9.60498L14.6568 8.07833L7.23401 8.10083L7.39192 11.078Z" fill="#FFF4B3"/>
<path d="M19.9855 18.8879L18.4964 18.8074C18.6693 19.7002 19.0961 20.1668 19.4572 20.0168C19.8183 19.8668 19.9435 19.0795 19.9855 18.8879Z" fill="white"/>
<path d="M15.3909 18.7106C15.5854 19.7309 15.9699 20.2615 16.3309 20.0902C16.692 19.919 16.7745 19.0679 16.8372 18.7274L15.3909 18.7106Z" fill="white"/>
<path d="M17.0831 8.6025C13.8076 9.4907 10.4871 10.2036 7.13564 10.7383" stroke="#FFC619" stroke-width="2" stroke-miterlimit="10" stroke-linecap="round"/>
</g>
<defs>
<clipPath id="clip0_257_16969">
<rect y="0.0908098" width="29.9094" height="29.9094" rx="14.5946" transform="rotate(-0.173721 0 0.0908098)" fill="white"/>
</clipPath>
</defs>
</svg>
