<svg width="30" height="30" viewBox="0 0 30 30" fill="none" xmlns="http://www.w3.org/2000/svg">
<g clip-path="url(#clip0_257_16970)">
<rect y="0.0908098" width="29.9094" height="29.9094" rx="14.5946" transform="rotate(-0.173721 0 0.0908098)" fill="#7196FF"/>
<path d="M11.2469 25.6229L10.5919 26.2763L15.3773 30.9927L16.0325 30.3391L11.2469 25.6229Z" fill="#2E3338"/>
<path d="M14.2299 25.6209L13.5748 26.2743L18.3602 30.9906L19.0154 30.3371L14.2299 25.6209Z" fill="#2E3338"/>
<path d="M19.6024 24.7859C20.8341 23.5513 21.5939 21.93 21.7509 20.2005C21.9079 18.4708 21.4523 16.7411 20.4626 15.3086L17.358 10.811L13.7015 10.8221L13.719 16.5709C13.7205 17.0703 13.5218 17.5498 13.1668 17.9041C12.8117 18.2582 12.3293 18.458 11.8256 18.4595L5.94685 18.4773L5.9508 19.7794C5.9566 21.6938 6.72777 23.5276 8.09518 24.8791C9.46258 26.2305 11.3148 26.9891 13.2455 26.9885L14.3161 26.9852C16.2998 26.9627 18.1964 26.1737 19.6024 24.7859Z" fill="#FFD836"/>
<path d="M17.3517 8.7079C18.3215 8.70496 19.2527 9.08413 19.9405 9.76197C20.6282 10.4398 21.0163 11.3608 21.0192 12.3224L21.0221 13.2639L13.7089 13.286L13.706 12.3246C13.7085 11.3664 14.0933 10.4482 14.7765 9.77054C15.4596 9.09286 16.3854 8.71082 17.3517 8.7079Z" fill="#FFD836"/>
<path d="M22.0885 11.9184C22.2651 12.0905 22.4047 12.2961 22.4991 12.523C22.5935 12.7499 22.6408 12.9934 22.638 13.2388L19.1431 13.2494C19.0132 13.2472 18.8867 13.2075 18.7793 13.135C18.6719 13.0625 18.5882 12.9605 18.5385 12.8415C18.4887 12.7225 18.4751 12.5916 18.4994 12.4651C18.5237 12.3385 18.5847 12.2217 18.675 12.1291L19.38 11.4259L19.377 10.4243C19.3764 10.2949 19.4265 10.1703 19.5165 10.0767C19.6067 9.98308 19.7299 9.92766 19.8602 9.9221C19.9934 9.92885 20.1209 9.97758 20.2243 10.0612L22.0885 11.9184Z" fill="#FF9A15"/>
<path d="M17.3516 8.70779L16.2808 8.71103C14.963 8.71339 13.6978 8.19875 12.7613 7.27946L12.2342 6.70016L12.2353 7.06072C12.2389 8.22948 12.7105 9.34894 13.5466 10.1729C14.3825 10.9968 15.5144 11.4576 16.6931 11.454L17.3396 11.4521L17.3516 8.70779Z" fill="#FFD836"/>
<path d="M12.1646 10.3661L15.0938 10.3572L15.1026 13.2617L12.1646 10.3661Z" fill="#FFD836"/>
<path d="M7.6522 21.2766C8.20199 22.432 9.17957 23.3329 10.3819 23.7921C11.5842 24.2514 12.9188 24.2338 14.1083 23.7428C15.2978 23.2519 16.251 22.3254 16.7696 21.1559C17.2882 19.9863 17.3324 18.6637 16.8932 17.4627L7.6522 21.2766Z" fill="#FF9A15"/>
<path d="M2.70472 15.2823L4.99475 17.639C5.29532 17.9315 5.53457 18.28 5.69867 18.6645C5.86291 19.0492 5.94866 19.4621 5.95103 19.8796L7.5874 19.8746L7.58394 18.733C7.58007 18.0949 7.36302 17.4762 6.9667 16.9736C6.57039 16.471 6.01722 16.1129 5.39368 15.9553L2.70472 15.2823Z" fill="#FFD836"/>
<path d="M7.01953 19.1953L6.83826 19.376C6.7639 19.4472 6.67003 19.495 6.56836 19.5136C6.46668 19.5321 6.36175 19.5205 6.26679 19.4801C6.17169 19.4398 6.09084 19.3725 6.0342 19.2868C5.97756 19.2011 5.94762 19.1007 5.94828 18.9981L5.9323 13.73L7.00617 14.7885C7.59035 15.3748 7.91903 16.1649 7.92153 16.9891C7.92403 17.8132 7.60015 18.6055 7.01953 19.1953Z" fill="#FFD836"/>
<path d="M17.582 11.4514C17.8387 11.4507 18.0461 11.2438 18.0453 10.9893C18.0446 10.7349 17.8359 10.5292 17.5793 10.53C17.3226 10.5308 17.1152 10.7377 17.116 10.9921C17.1167 11.2466 17.3254 11.4522 17.582 11.4514Z" fill="#202225"/>
</g>
<defs>
<clipPath id="clip0_257_16970">
<rect y="0.0908098" width="29.9094" height="29.9094" rx="14.5946" transform="rotate(-0.173721 0 0.0908098)" fill="white"/>
</clipPath>
</defs>
</svg>
