<svg width="30" height="30" viewBox="0 0 30 30" fill="none" xmlns="http://www.w3.org/2000/svg">
<g clip-path="url(#clip0_257_16914)">
<rect y="0.0908098" width="29.9094" height="29.9094" rx="14.5946" transform="rotate(-0.173721 0 0.0908098)" fill="#FFE75C"/>
<path d="M23.0493 30.4252C23.1572 30.8571 23.1654 31.308 23.0731 31.7434C22.9811 32.1791 22.7909 32.5878 22.5174 32.9392C22.2438 33.2903 21.894 33.5749 21.4943 33.7709C21.0946 33.9669 20.6557 34.0695 20.2103 34.0708L14.1275 34.0893L11.2823 35.6931L11.282 35.608C9.98462 35.612 9.23913 35.1888 9.79895 30.4229C9.53966 29.0837 8.33261 23.8127 7.66135 19.8799C7.05492 16.2873 8.39086 14.9646 12.0853 12.869C13.645 8.18509 17.7293 8.44921 18.5247 11.2543C19.3202 14.0594 21.9512 25.9833 23.0493 30.4252Z" fill="#66BCFF"/>
<path d="M23.0493 30.4253C22.4894 28.1299 21.4981 23.8791 20.5715 19.9046L15.8062 19.5575L12.1348 22.1635L10.0165 25.0199L8.93627 26.4908C9.32465 28.3187 9.64799 29.8066 9.77753 30.4442C9.21772 35.2102 9.96342 35.6333 11.2608 35.6294L15.0208 34.0228L23.7391 33.3796C23.5235 32.4231 23.2863 31.4242 23.0493 30.4253Z" fill="#EB459F"/>
<path d="M13.2946 28.0606C13.558 26.4731 13.4148 25.1268 12.9743 25.0537C12.534 24.9806 11.9635 26.2082 11.6999 27.7959C11.4363 29.3834 11.5797 30.7295 12.02 30.8026C12.4602 30.8757 13.031 29.648 13.2946 28.0606Z" fill="black"/>
<path d="M10.5028 24.1252C10.7143 23.7417 10.9473 23.3581 11.1803 23.0171C13.5731 19.543 15.8246 18.6003 17.994 18.5938L20.6951 18.5856C20.7356 18.5865 20.7749 18.597 20.8105 18.6161C20.8459 18.6351 20.8764 18.6624 20.8992 18.6956C20.9221 18.7287 20.9369 18.7667 20.9423 18.8067C20.9478 18.8466 20.9436 18.8873 20.9303 18.9252L20.5715 19.9046C16.4241 19.9172 14.9562 19.794 11.5216 23.4202L10.0165 25.0199L10.5028 24.1252Z" fill="#D11583"/>
<path d="M11.522 23.5477C10.0977 23.8073 8.97275 24.5551 8.33868 25.8757C8.15858 26.2421 7.89794 26.5628 7.57584 26.8139L3.7559 29.6117C3.32656 29.9184 3.02805 30.3751 2.91923 30.8914C2.81062 31.4078 2.89967 31.946 3.16883 32.3997C3.35653 32.7182 3.62468 32.9815 3.94618 33.1635C4.2679 33.3454 4.63167 33.4396 5.0011 33.4363L6.59626 33.4315C9.90859 31.5711 11.4361 30.3116 12.2209 29.586C13.0056 28.8605 13.8737 27.5605 13.7203 26.0721C13.5669 24.5837 13.1375 23.2451 11.522 23.5477Z" fill="white"/>
<path d="M12.6797 12.5484C12.1667 11.6992 11.4826 10.574 11.2258 10.043C10.969 9.51208 10.3526 9.64156 11.2318 12.021C9.10246 11.2193 8.65672 11.5184 8.55128 11.8165C8.44584 12.1145 8.91421 12.262 9.80904 12.7698C10.7039 13.2775 11.6628 13.8914 11.6628 13.8914L12.6797 12.5484Z" fill="#66BCFF"/>
<path d="M14.8918 12.6053C15.252 12.1576 15.3784 11.668 15.1652 11.4985C14.952 11.329 14.718 11.4148 14.4003 11.8411C14.2632 12.0144 14.1146 12.1785 13.9551 12.3316C13.5946 12.673 13.6805 12.928 13.8511 13.0764C14.0217 13.2247 14.5316 13.053 14.8918 12.6053Z" fill="black"/>
<path d="M18.5035 11.2757C18.5035 11.2757 15.9691 10.1349 14.8822 9.43632C13.7954 8.73773 13.2392 7.69724 13.7276 7.41926C14.2159 7.14128 15.154 7.79778 15.8159 8.64653C15.79 7.13651 16.0443 6.81673 16.4483 6.79423C16.8524 6.77174 16.8965 7.36711 16.9204 8.2178C16.9442 9.06849 17.0943 9.40834 17.7341 9.98066C18.1172 10.3234 18.3857 10.7754 18.5035 11.2757Z" fill="#3442D9"/>
<path d="M9.23069 18.3652C8.63516 18.367 8.12316 17.8581 8.58837 16.9634C9.05357 16.0687 10.582 15.1708 11.3254 14.8282C12.0688 14.4857 12.4103 14.8249 12.4324 15.0801C12.4544 15.3353 12.349 15.7184 11.8193 16.4006C11.2897 17.0829 10.3154 18.362 9.23069 18.3652Z" fill="white"/>
<path d="M9.69819 18.2999L9.33703 18.3648L8.82129 16.6223L9.11808 16.3023L9.69819 18.2999Z" fill="#8CD9FF"/>
<path d="M11.014 17.3602L10.7173 17.6589L10.1151 15.5125L10.4335 15.2989L11.014 17.3602Z" fill="#8CD9FF"/>
<path d="M12.2007 15.8676L11.9252 16.2513L11.4953 14.7637L11.8567 14.6988L12.2007 15.8676Z" fill="#8CD9FF"/>
<path d="M11.7285 14.5081C12.1228 14.6949 12.5282 14.8572 12.9425 14.9936" stroke="black" stroke-linecap="round" stroke-linejoin="round"/>
<path d="M21.2394 22.7103C20.8313 22.3887 20.332 22.2041 19.8129 22.1829C18.707 22.1862 18.0935 23.2728 17.8839 24.3156C17.8502 24.4829 17.7603 24.6333 17.6289 24.7422C17.4976 24.8511 17.333 24.9114 17.1626 24.9134L17.0137 24.9138C16.9177 24.8964 16.8262 24.8599 16.7448 24.8062C16.6631 24.7526 16.5934 24.683 16.5395 24.6017C16.4857 24.5204 16.4486 24.4291 16.4311 24.3332C16.4134 24.2371 16.4154 24.1387 16.4368 24.0435C16.8348 22.0218 18.1495 20.7204 19.8085 20.7153C20.0829 20.7179 20.3484 20.8137 20.5616 20.987C20.7746 21.1601 20.9225 21.4006 20.9812 21.6689L21.2394 22.7103Z" fill="white"/>
<path d="M23.0494 30.4253C23.0969 30.6153 23.1052 30.8131 23.0739 31.0063C23.0426 31.1997 22.9725 31.3848 22.8675 31.5501C22.7625 31.7155 22.6251 31.8578 22.4636 31.9684C22.3021 32.0793 22.1196 32.156 21.9277 32.194L21.3961 32.2382C20.1838 32.2419 18.9265 31.5225 17.9443 30.2706C17.8856 30.1925 17.8426 30.1038 17.8181 30.0092C17.7935 29.9144 17.7879 29.8159 17.8014 29.7191C17.815 29.6223 17.8474 29.5291 17.897 29.4449C17.9465 29.3605 18.0122 29.2869 18.0903 29.228C18.1671 29.1663 18.2558 29.1209 18.3508 29.0947C18.4458 29.0687 18.5453 29.0622 18.643 29.0757C18.7407 29.0895 18.8344 29.1228 18.9187 29.1742C19.0029 29.2255 19.0759 29.2933 19.1327 29.3737C19.8159 30.2437 20.6472 30.7729 21.3916 30.7706C22.136 30.7684 22.5814 30.3416 22.8988 29.7877C22.942 30.0215 23.0062 30.234 23.0494 30.4253Z" fill="#2331B5"/>
<path d="M21.6059 24.3468C21.4557 24.3481 21.3097 24.396 21.1879 24.484C21.0663 24.572 20.975 24.6959 20.9268 24.8381L20.0408 27.2442C19.9634 27.4701 19.9658 27.7157 20.0478 27.9401C20.1299 28.1644 20.2864 28.3537 20.4911 28.4764C20.5838 28.5329 20.6882 28.5681 20.796 28.5788C20.9041 28.5898 21.0132 28.5761 21.1154 28.539C21.2173 28.5019 21.3097 28.4422 21.3856 28.3646C21.4615 28.2869 21.5188 28.1932 21.5534 28.0903L22.1232 26.536C21.9722 25.8346 21.7996 25.1119 21.6059 24.3468Z" fill="#5865F2"/>
<path d="M20.4911 28.4763C20.2864 28.3536 20.1299 28.1643 20.0478 27.94C19.9658 27.7156 19.9634 27.47 20.0408 27.2441L20.294 26.584C20.3364 26.4688 20.4033 26.3641 20.4898 26.2771C20.5765 26.1903 20.681 26.1232 20.7959 26.0803C20.911 26.0376 21.0339 26.0202 21.1565 26.0294C21.2788 26.0386 21.3978 26.0742 21.5049 26.1336C21.6803 26.2354 21.8148 26.3947 21.8851 26.5849C21.9555 26.7748 21.9576 26.9832 21.8909 27.1746L21.5534 28.0902C21.5188 28.1931 21.4615 28.2868 21.3856 28.3645C21.3097 28.4421 21.2173 28.5018 21.1154 28.5389C21.0132 28.576 20.9041 28.5897 20.796 28.5787C20.6882 28.568 20.5838 28.533 20.4911 28.4763Z" fill="#FFE75C"/>
</g>
<defs>
<clipPath id="clip0_257_16914">
<rect y="0.0908098" width="29.9094" height="29.9094" rx="14.5946" transform="rotate(-0.173721 0 0.0908098)" fill="white"/>
</clipPath>
</defs>
</svg>
