<svg width="30" height="30" viewBox="0 0 30 30" fill="none" xmlns="http://www.w3.org/2000/svg">
<g clip-path="url(#clip0_257_16972)">
<rect y="0.0908098" width="29.9094" height="29.9094" rx="14.5946" transform="rotate(-0.173721 0 0.0908098)" fill="url(#paint0_linear_257_16972)"/>
<path d="M27.1685 11.9621C28.7165 6.00091 29.4659 4.94221 33.0891 12.6152L27.1685 11.9621Z" fill="#D4E1FF"/>
<path d="M12.3794 24.7325L12.2373 24.8557C14.3991 26.8821 17.6904 32.0958 22.672 31.8172C22.672 31.8172 26.7215 39.1637 31.0517 38.3378C35.382 37.5112 38.5764 31.4025 38.5764 31.4025C39.7433 29.294 40.5671 27.0132 41.017 24.6457C40.9544 24.0975 40.7498 23.6708 40.3628 23.4077C37.2647 21.3643 14.6321 23.0797 12.3794 24.7325Z" fill="#1C1B29"/>
<path d="M18.9036 9.62877L23.4425 10.8345C24.7903 10.2535 26.244 9.95858 27.7117 9.96848C34.6266 9.94752 38.325 15.547 38.3459 22.438C38.3668 29.3298 34.7024 34.9516 27.7875 34.9725C20.8718 34.9935 17.194 29.394 17.1731 22.5022C17.1659 21.4874 17.2443 20.4738 17.4076 19.4722C17.8681 16.8276 17.7356 14.1125 17.0171 11.525C16.9472 11.2635 16.9472 10.9881 17.017 10.7266C17.0868 10.465 17.224 10.2263 17.415 10.0344C17.6059 9.84242 17.8439 9.70395 18.1051 9.63278C18.3663 9.56161 18.6416 9.56022 18.9036 9.62877Z" fill="#B3CAFF"/>
<path d="M38.1112 25.4278C34.7595 26.9217 31.2973 25.3661 27.956 23.4659C24.3086 21.3831 21.9532 16.0842 20.9518 14.4001C19.9504 12.7152 18.5249 12.3951 17.5417 9.93854C17.3095 10.1233 17.1362 10.3719 17.0432 10.6537C16.9501 10.9356 16.9413 11.2384 17.0179 11.5252C17.7357 14.1128 17.8689 16.8277 17.4076 19.4731C17.2443 20.4745 17.1659 21.4878 17.173 22.5023C17.1939 29.3941 20.8924 34.9936 27.7875 34.9727C33.6657 34.9549 37.1923 30.8782 38.1112 25.427L38.1112 25.4278Z" fill="#8DAEF7"/>
<path d="M37.4948 23.3752C37.5111 28.7421 34.3311 33.1026 30.4052 33.1145C26.4801 33.1264 23.2935 28.7852 23.2772 23.4183C23.2504 14.5553 28.7842 21.796 32.7101 21.7841C36.6352 21.7722 37.573 15.7725 37.4948 23.3752Z" fill="#FCFDFF"/>
<path d="M30.5092 28.5714C30.8903 28.5382 31.1538 28.0038 31.1 27.3774C31.0454 26.7509 30.6924 26.2703 30.3121 26.3027C29.9318 26.3368 29.6674 26.8712 29.722 27.4968C29.7766 28.1233 30.1289 28.6047 30.5092 28.5714ZM35.1788 27.519C35.2905 26.9003 35.0764 26.3435 34.6999 26.2763C34.3242 26.2082 33.9287 26.6549 33.817 27.2736C33.706 27.8915 33.9201 28.4483 34.2958 28.5163C34.6715 28.5843 35.067 28.1377 35.1788 27.519Z" fill="#1C1B29"/>
<path d="M51.0806 90.0535C48.194 90.6724 39.525 82.4654 39.525 82.4654C41.9273 89.9388 42.3408 92.1739 42.7535 94.1035C43.1661 96.034 42.9227 96.4209 42.7646 97.7833C42.6057 99.1457 42.6056 99.1053 43.4243 100.811C44.243 102.515 44.776 103.713 44.9409 104.587C45.0034 105.095 44.9844 105.609 44.8846 106.111L8.53827 106.222C8.53827 106.222 8.35219 105.409 9.11852 103.15C9.88485 100.892 11.6486 99.0164 12.6201 97.5898C13.5923 96.164 13.5318 96.3066 13.2657 95.7179C12.0367 92.8347 14.0114 93.4595 14.8324 89.1267C15.6526 84.7939 15.8551 64.1391 17.6797 55.6978C19.5051 47.2557 22.3266 45.2545 22.5088 38.2814C19.0614 35.0805 10.5139 26.7506 12.2373 24.8548C14.1951 26.6785 20.0555 27.5557 24.8352 27.5009C25.2544 27.4936 25.6653 27.6187 26.0093 27.8585C26.3533 28.0983 26.6129 28.4405 26.7512 28.8364C27.5721 31.2934 29.6412 36.1461 32.8736 35.5055C36.106 34.8658 38.4879 29.0849 39.1534 26.989C39.2937 26.5315 39.5866 26.1359 39.9833 25.8683C40.4162 25.5448 40.7697 25.1269 41.0171 24.6465C41.4772 28.6493 34.8579 39.2806 34.8579 39.2806C34.8579 39.2806 36.5492 53.6685 39.8588 58.3947C43.1676 63.1217 52.4225 63.0937 52.6593 67.606C52.897 72.1175 53.9466 89.4346 51.0806 90.0535Z" fill="#BD4070"/>
<path d="M22.949 29.2134C20.5484 29.0783 17.3137 28.6813 12.1193 26.1157C12.9617 29.1416 19.5923 35.5457 22.5088 38.2813C22.4715 40.4441 22.0865 42.5868 21.3687 44.6274C24.0033 48.3395 27.1693 45.9108 27.7708 56.3579C28.028 60.8093 31.3206 66.7146 34.7571 73.1078C38.1936 79.501 38.6256 67.7292 38.4656 61.9362C38.3746 58.7853 37.7328 54.8843 37.0497 51.1662C35.5892 45.5394 34.8579 39.2805 34.8579 39.2805C34.8579 39.2805 39.4933 31.8262 40.7395 27.0656C40.4223 27.2642 40.1745 27.5564 40.0306 27.901C38.7775 30.7494 37.3737 33.5292 35.8253 36.2285C34.2262 38.9374 31.2405 40.2878 27.7867 34.9725C24.3337 29.6563 25.5325 29.3686 22.949 29.2134Z" fill="#A12C66"/>
<path d="M24.424 19.2485C28.0093 20.9651 29.2569 23.1573 32.1245 23.0671C34.9921 22.9769 36.1061 21.591 37.2599 19.7382C36.7891 18.7227 35.5171 21.7756 32.7102 21.7841C29.9032 21.7926 26.231 18.0433 24.424 19.2485Z" fill="#8DAEF7"/>
</g>
<defs>
<linearGradient id="paint0_linear_257_16972" x1="14.9547" y1="30.1359" x2="14.9547" y2="8.71166" gradientUnits="userSpaceOnUse">
<stop stop-color="#7196FF"/>
<stop offset="1" stop-color="#2A5EE8"/>
</linearGradient>
<clipPath id="clip0_257_16972">
<rect y="0.0908098" width="29.9094" height="29.9094" rx="14.5946" transform="rotate(-0.173721 0 0.0908098)" fill="white"/>
</clipPath>
</defs>
</svg>
