<svg width="80" height="80" viewBox="0 0 80 80" fill="none" xmlns="http://www.w3.org/2000/svg">
<path d="M64.5611 35.364L62.1809 35.2676L61.58 32.1144C58.9028 18.0658 46.1026 15.0699 34.9842 17.674C23.0229 20.4387 15.9293 28.0346 15.3356 39.18C15.1797 41.9274 15.1351 42.033 13.6217 42.5802C8.48699 44.4969 7.67126 49.8935 10.1051 52.3091C11.8655 54.0766 15.2223 53.6957 16.2049 52.5702C16.6836 52.0261 17.3585 51.1533 17.4997 50.7058C17.574 50.7564 20.2351 67.2669 45.4794 62.3914C61.6137 59.2844 61.2378 44.409 61.263 44.3719L64.7896 46.5792C68.3414 48.7494 71.1852 47.2046 72.9198 43.574C74.7242 39.8007 70.4245 35.5731 64.5611 35.364ZM15.3321 50.5366C13.2955 52.4129 11.8592 49.969 13.1835 46.9019C14.1006 44.7536 19.3185 41.9151 19.604 43.4137C19.7364 43.9384 16.3251 49.6356 15.3321 50.5366ZM57.2559 36.7561C55.081 38.0765 54.9962 38.4808 56.5915 39.8915C59.8312 42.8006 56.2359 52.2857 50.205 56.7997C39.3799 64.8479 16.7181 56.4518 21.2813 46.1029C22.6115 43.067 22.4167 41.8747 20.5644 42.0012C17.3087 42.2334 18.4544 36.871 23.4741 28.4086C30.3547 16.8091 45.1306 19.1374 49.4496 21.9379C55.001 25.6035 60.0075 35.067 57.2559 36.7561ZM67.7789 44.1007C66.6655 44.5394 59.6779 39.7887 59.8621 38.7183C60.0716 37.6107 64.1524 37.1242 66.0078 38.0324C69.1047 39.5128 70.1872 43.1565 67.7789 44.1007Z" fill="#1E5C9A"/>
<path d="M29.9156 38.9329C28.6981 39.1649 27.4254 37.9192 27.0922 36.1709C26.771 34.4851 24.9201 33.7702 24.055 35.0027C21.5533 38.6824 28.7637 42.2259 33.2383 39.5614C35.4756 38.2292 36.0298 33.4971 33.9678 33.3724C32.3667 33.2893 31.5758 33.893 31.8078 35.1105C32.1261 36.4411 30.9459 38.7366 29.9156 38.9329Z" fill="#1E5C9A"/>
<path d="M51.8964 35.8965C54.0979 33.6975 53.7971 29.0637 51.4959 29.8905C50.9518 30.0912 50.5535 30.7171 50.4272 31.5823C49.876 35.9903 46.1833 36.9852 45.4099 32.9267C44.8923 30.2106 41.1592 29.4662 41.2724 32.0975C41.5494 37.2859 48.0849 39.664 51.8964 35.8965Z" fill="#1E5C9A"/>
<path d="M30.4616 57.9286C31.4948 58.0876 31.8828 57.9166 32.5517 57.0126C35.7774 52.548 44.6912 50.4287 46.8501 53.6084C47.4835 54.5554 49.3179 55.0146 50.4507 54.5076C52.9913 53.4087 49.3766 45.1358 46.5669 45.6713C45.7239 45.8319 45.5976 46.0177 45.9604 46.5633C46.6057 47.5727 47.4562 49.9988 47.2065 50.0464C47.0816 50.0702 46.1792 49.9187 45.2024 49.7166C42.4402 49.143 36.901 50.2956 34.3115 51.9861C33.1579 52.7236 32.1619 53.2693 32.1069 53.1504C32.0518 53.0314 31.9626 52.5632 31.8674 52.0637C31.5759 50.5339 31.6087 50.3659 32.6403 48.6487C34.476 45.5489 40.5071 43.0731 42.0563 44.7514C42.5812 45.2985 45.492 44.6143 45.1544 44.0316C43.5293 41.106 33.9836 42.1163 31.3287 45.5016C28.112 49.6734 27.5611 57.4784 30.4616 57.9286Z" fill="#1E5C9A"/>
</svg>
