<svg width="103" height="103" viewBox="0 0 103 103" fill="none" xmlns="http://www.w3.org/2000/svg">
<path d="M73.2688 23.6119C61.662 17.7164 54.4768 22.8289 63.0898 24.8555C84.9215 30.014 87.9153 56.9584 66.9586 72.0195C42.087 89.8442 10.8593 65.7095 26.7034 40.9299C33.428 30.4286 41.0277 24.7634 48.6274 24.5331C55.3059 24.3489 53.1872 20.9865 46.3706 20.9865C29.5592 20.9865 11.4581 42.4038 14.8204 58.3401C17.5379 71.3747 28.2235 79.8495 44.5743 81.8761C82.6648 86.6201 105.602 40.0088 73.2688 23.6119Z" fill="#1E5C9A"/>
<path d="M45.0806 59.3537C43.054 56.1296 42.8699 55.9914 40.8434 56.1296C35.5466 56.5441 39.0471 64.0977 45.7256 66.5849C51.2527 68.6575 59.8195 67.5521 62.7212 64.4662C67.0968 59.8143 66.0373 52.4449 61.4314 55.4848C61.1551 55.669 60.5104 56.7744 60.0038 57.8798C56.5955 65.4334 49.272 66.1243 45.0806 59.3537Z" fill="#1E5C9A"/>
<path d="M65.1165 44.6152C63.4584 40.6541 60.8792 39.6869 59.0369 42.3583C56.8261 45.6284 58.0697 48.6683 61.6162 48.6683C65.1627 48.6683 66.2679 47.4247 65.1165 44.6152Z" fill="#1E5C9A"/>
<path d="M46.0021 45.2599C46.0021 42.0358 43.9296 40.5619 41.074 41.7594C38.4947 42.8187 37.2971 47.701 39.1394 49.4052C42.0411 52.0305 46.0021 49.5894 46.0021 45.2599Z" fill="#1E5C9A"/>
</svg>
