<svg width="18" height="15" viewBox="0 0 18 15" fill="none" xmlns="http://www.w3.org/2000/svg">
<path d="M16.1683 3.62818C16.8728 3.0998 17.5068 2.46575 18 1.72603C17.3659 2.00783 16.6262 2.21918 15.8865 2.28963C16.6614 1.8317 17.225 1.1272 17.5068 0.246575C16.8023 0.669275 15.9922 0.9863 15.182 1.16243C14.4775 0.4227 13.5264 0 12.4697 0C10.4266 0 8.77103 1.65558 8.77103 3.69863C8.77103 3.98043 8.80625 4.26223 8.8767 4.54403C5.81213 4.3679 3.06458 2.88845 1.23288 0.669275C0.91585 1.19765 0.739725 1.8317 0.739725 2.5362C0.739725 3.8043 1.37378 4.9315 2.3953 5.60078C1.79648 5.56555 1.19765 5.42465 0.7045 5.14285V5.17808C0.7045 6.97455 1.9726 8.454 3.6634 8.80625C3.3816 8.8767 3.02935 8.94715 2.71233 8.94715C2.46575 8.94715 2.2544 8.91193 2.00783 8.8767C2.46575 10.3562 3.83953 11.4129 5.45988 11.4481C4.19178 12.4344 2.60665 13.0333 0.880625 13.0333C0.5636 13.0333 0.2818 12.998 0 12.9628C1.62035 14.0196 3.55773 14.6184 5.67123 14.6184C12.4697 14.6184 16.1683 9.0176 16.1683 4.12133C16.1683 3.9452 16.1683 3.8043 16.1683 3.62818Z" fill="black"/>
</svg>
