<svg width="114" height="118" viewBox="0 0 114 118" fill="none" xmlns="http://www.w3.org/2000/svg">
<path d="M107.018 18.3242C106.894 18.3132 106.734 18.2968 106.555 18.2776C106.728 20.5209 106.869 23.1156 106.996 25.6774C106.85 34.5109 108.065 73.6533 105.356 74.0485C98.0013 75.1226 71.7166 76.2315 68.4397 76.4103C53.7564 77.2111 25.9443 77.2837 11.1166 76.0117C6.52862 75.6178 7.00879 75.8863 6.90125 73.0231C5.02509 23.13 7.54581 13.9198 7.55883 13.2156C7.5739 12.3888 7.76774 10.7086 8.06914 9.91948C8.18764 9.60919 8.36916 9.3626 8.76096 9.30985C9.77267 9.17423 8.73836 8.89613 17.0601 8.24471C35.647 6.78777 64.5134 5.10409 87.1204 6.51789C86.6683 4.58008 86.6224 2.55324 86.9793 0.570912C58.8554 -0.920284 11.9002 0.532553 4.39355 4.6616C2.97222 5.44316 2.66124 6.53638 2.22148 7.74879C-1.43217 17.831 0.0227181 76.9227 2.2934 86.8542C2.80577 89.0961 3.09209 90.3058 4.3867 91.2503C5.95187 92.3929 10.4666 92.9772 11.3221 93.0121C11.9214 93.0361 14.0243 93.4861 16.5546 93.8128C18.5931 94.0759 21.931 94.2423 22.0256 94.2547C28.3547 95.0383 35.8758 95.0712 47.6848 95.2321C48.0348 95.2369 47.9992 95.1951 47.8759 96.8322C47.4088 103.024 47.8232 103.126 47.0731 103.506C42.0399 108.099 42.6091 107.512 40.2391 110.589C39.5541 111.478 38.6842 112.772 38.7417 113.8C38.7739 114.372 38.8328 116.227 39.0692 116.714C39.9809 118.588 56.4628 117.908 58.7979 117.749C63.8469 117.407 75.658 117.352 80.0672 116.349C80.4843 116.254 80.7337 116.016 80.8734 115.622C81.1289 114.904 81.3515 112.717 80.9981 112.042C80.3179 110.741 79.3692 109.046 77.3923 106.523C72.505 100.286 73.553 104.825 72.8742 99.8283C72.1687 94.6314 72.2146 94.9026 72.4557 94.9074C72.3009 94.9122 96.7423 93.7738 106.439 91.4387C108.08 91.0435 109.638 90.6373 110.539 88.9269C113.943 82.4614 114.371 36.7829 113.11 17.6008C111.554 18.0221 111.259 18.0317 107.016 18.3242H107.018ZM73.3626 106.887C73.5606 107.442 73.6948 107.456 73.9106 107.438C74.4928 107.388 74.0086 106.21 73.477 103.6C75.8422 105.666 78.4164 109.507 79.9781 111.739C80.5494 112.555 79.0274 112.45 69.5213 113.044C69.3898 113.052 44.425 114.21 40.5802 113.694C38.8931 113.467 38.8212 113.773 42.9174 108.59C44.0942 107.1 46.8012 104.631 47.3594 104.268C47.6197 104.1 47.3718 104.544 47.2314 107.57C47.2122 107.989 47.5773 108.338 47.6875 108.056C48.5602 105.816 48.9116 97.6295 48.7993 97.6295C48.7993 95.2164 48.713 95.2349 49.0068 95.2342C59.239 95.2088 49.6897 95.6095 66.8163 95.1314C71.0878 95.0122 69.6158 95.0992 71.0878 94.9842C71.2885 94.9684 71.2234 95.0972 71.3015 95.9041C71.7509 100.547 72.914 105.625 73.3633 106.886L73.3626 106.887ZM109.912 88.0412C109.141 90.016 107.853 90.2859 102.121 91.4784C98.5629 92.2189 76.5169 93.7567 76.5005 93.758C74.2887 93.9533 56.9847 94.4095 56.9841 94.3848C26.1717 94.3848 20.0398 93.021 13.6962 92.2771C6.51766 91.4353 4.44697 91.4784 3.61267 88.2666C3.21607 86.7391 2.56466 84.154 2.52835 82.5765C2.50917 81.7114 2.34067 81.3846 2.60096 81.4894C5.66418 82.7183 50.1322 83.0608 70.4302 82.3532C80.9618 81.986 78.4719 81.8127 87.3574 81.4415C105.955 80.664 109.003 79.5112 111.351 79.5071C111.41 81.8141 110.618 86.2322 109.911 88.0419L109.912 88.0412Z" fill="#003265"/>
</svg>
